<?xml version="1.0" encoding="utf-8"?>
<!-- Generator: Adobe Illustrator 27.2.0, SVG Export Plug-In . SVG Version: 6.00 Build 0)  -->
<svg version="1.1"
	 id="Layer_1" xmlns:rdf="http://www.w3.org/1999/02/22-rdf-syntax-ns#" xmlns:dc="http://purl.org/dc/elements/1.1/" xmlns:cc="http://creativecommons.org/ns#"
	 xmlns="http://www.w3.org/2000/svg" xmlns:xlink="http://www.w3.org/1999/xlink" x="0px" y="0px" viewBox="0 0 56 56"
	 style="enable-background:new 0 0 56 56;" xml:space="preserve">
<style type="text/css">
	.st0{fill:#ED1C24;stroke:#ED1C24;stroke-width:0.4688;stroke-miterlimit:6.2499;}
	.st1{fill:#FDBF00;}
	.st2{fill:#DEDDDE;}
	.st3{fill:#FFFFFF;}
</style>
<g transform="matrix(1.25 0 0 -1.25 -589.08 566.73)">
	<g transform="translate(.93407 .62271)">
		<path class="st0" d="M486,439.4c-0.9,0-1.8-0.3-1.7-0.4c0.2-0.2,0.6-1.4,1.1-1.7c1.7-0.5,3.4,0,3.2,0.2c-0.5,0.5-0.5,1.7-2.3,1.8
			C486.2,439.4,486.1,439.4,486,439.4L486,439.4z M502.7,439.4c-0.9,0-1.8-0.3-1.7-0.4c0.2-0.2,0.6-1.4,1.1-1.7c1.7-0.5,2.8,0,3,0.3
			c0.2,0.4-0.2,1.6-2.1,1.8C502.9,439.4,502.8,439.4,502.7,439.4L502.7,439.4z M494.3,439.3c-0.9,0-1.8-0.3-1.7-0.4
			c0.2-0.2,0.6-1.4,1.1-1.7c1.7-0.5,3.4,0,3.2,0.2c-0.5,0.5-0.5,1.7-2.3,1.8C494.6,439.3,494.4,439.3,494.3,439.3L494.3,439.3z
			 M491.3,434.1v-9.7h-10.7v-2.9h10.7v-13l1.7-0.5l1.7,0.5v13h10.7v3h-10.7v9.7L491.3,434.1L491.3,434.1z"/>
		<path class="st1" d="M492.6,447.3c0-0.1-0.2-0.6-0.2-1.4c0-0.4,0-1.1,0.1-1.2c0.2,0,0.7,0,1,0c0.1,0.7-0.2,2.1-0.3,2.4
			C492.9,447.2,492.7,447.2,492.6,447.3L492.6,447.3z M495.8,446.8c-0.5-0.4-1.2-1.4-1.4-2.2c0.2-0.1,0.9-0.4,0.9-0.5
			c0.6,0.6,0.5,1.2,0.7,1.8c0.1,0.2,0.2,0.4,0.2,0.5C496.1,446.5,495.9,446.7,495.8,446.8L495.8,446.8z M489.1,446.7
			c0.1-0.1,0.1-0.2,0.2-0.3c0.2-0.4,0.6-1.9,1.1-2.4c0.2,0.2,0.7,0.4,0.9,0.5c-0.1,0.1-0.3,0.5-0.6,0.9c-0.6,0.7-1,1.1-1.1,1.2
			C489.6,446.7,489.2,446.7,489.1,446.7L489.1,446.7z M498.7,445.2c-0.1-0.1-0.4-0.2-0.5-0.3c-0.6-0.5-1.8-1-2.1-1.4
			c0.2-0.2,0.5-0.5,0.7-0.9c0.2,0,0.5,0.3,1.4,1.3c0.2,0.3,0.5,0.5,1.1,0.7C499,444.8,498.8,445.1,498.7,445.2L498.7,445.2z
			 M486.4,445.2c-0.1-0.2-0.2-0.5-0.3-0.6c0.2-0.2,1.4-1.6,2.9-2c0.2,0.3,0.5,0.6,0.7,0.9c-0.7,0.6-1.4,0.7-2.5,1.2
			c-0.2,0.1-0.6,0.4-0.7,0.4C486.6,445.1,486.5,445.1,486.4,445.2L486.4,445.2z M492.9,444.4c-2.3,0-4.2-1.9-4.2-4.2
			c0-0.1,0-0.3,0.1-0.5c1.2,0.3,2.8,0.2,3.5-0.3c1.1,0.7,2.8,0.7,4.1,0c0.2,0.2,0.5,0.2,0.7,0.3c0,0.2,0.1,0.5,0.1,0.6
			C497.2,442.5,495.3,444.4,492.9,444.4L492.9,444.4z M504.4,442.4c-0.2,0-1.8,0-2.1-0.1c-0.9-0.2-2.5-0.1-3.4,0
			c-0.7,0-1.4-0.2-1.7-0.4c0,0,0.2-0.6,0.3-1.1c0.3-0.1,0.5,0.3,1.4,0.3c0.9,0,2.9,0.1,4,0.5c0.7,0.3,1.4,0.5,2,0.5
			c0.2,0,0.5,0.1,0.1,0.2C504.9,442.4,504.7,442.4,504.4,442.4L504.4,442.4z M483.1,442.2c-0.5,0-0.7-0.1-1.1-0.1
			c-1.4,0,0.1-0.2,0.2-0.2c0.7-0.2,2-0.6,3.1-0.5c0.5,0,1.4-0.3,1.6-0.3c0.4-0.2,1.1-0.4,1.4-0.4c0,0.2,0.1,0.7,0.2,0.9
			c-0.3,0.3-0.9,0.5-1.6,0.5c-1.4-0.1-2.4,0-2.9,0.1C483.7,442.2,483.4,442.3,483.1,442.2L483.1,442.2z"/>
		<path class="st2" d="M480.7,434.1v-9.2h10.1v9.2H480.7z M495.1,434.1v-9.2h10.1v9.2H495.1z M480.7,420.9v-0.4
			c0.1-2.5,0.6-4.6,1.6-6.3v4.4h0.6v0.9c0.6-0.2,1.7,0.2,2.1,0.2c0.5,0,0.7-0.2,0.7-0.2s0.2,0.2,0.7,0.2c0.5,0,1.4-0.3,2.1-0.2v-1
			h0.6v-4.9h-2.9v-0.4h-1.2v0.4h-2.6c0.4-0.6,0.9-1.2,1.4-1.8c1.6-1.6,4.1-2.5,6.7-3.3v12.3L480.7,420.9L480.7,420.9z M495.1,420.9
			v-12.3c2.5,0.7,5,1.7,6.7,3.3c0.6,0.5,1.1,1.1,1.6,1.8h-2.6v-0.4h-1.1v0.4h-2.9v4.9h0.6v0.9c0.6-0.2,1.7,0.2,2.1,0.2
			c0.5,0,0.7-0.2,0.7-0.2s0.2,0.2,0.7,0.2c0.5,0,1.4-0.3,2.1-0.2v-1h0.6v-4.4c0.9,1.6,1.4,3.6,1.6,6.4v0.4H495.1L495.1,420.9z"/>
		<path class="st3" d="M491.2,451.6c-0.2,0-0.4-0.1-0.6-0.1c-0.7-0.2-1.3-0.7-1.6-1.6c0-0.1-0.1-0.2-0.2-0.2c-0.1,0-0.2,0-0.2,0
			c-1.1,0.5-2.1,0.5-2.7,0c-0.5-0.4-0.7-1.1-0.7-1.2c0-0.2-0.1-0.2-0.2-0.3l-0.3-0.1c-0.6-0.2-1.3-0.3-1.4-1.3
			c0-0.1-0.1-0.2-0.2-0.2c-1.1-0.1-1.8-0.5-1.9-1.1c-0.1-0.4,0.1-0.9,0.5-1.1c0.4-0.2,0.9-0.2,1.3,0.1c0.1,0.1,0.2,0.1,0.2,0
			c0.6-0.2,1.7-0.2,2.3,0.3c0.5,0.4,0.6,0.9,0.5,1.6c0,0.1,0,0.2,0.1,0.2c0.1,0.1,0.2,0.1,0.2,0c0.7-0.2,1.8-0.1,2.2,0.7
			c0.1,0.1,0.2,0.2,0.3,0.1c0.5-0.2,1.6-0.3,2.7,0.9c0.1,0.1,0.2,0.1,0.3,0c1.1-0.9,2.2-0.9,3.4-0.2c0.1,0.1,0.2,0.1,0.2,0.1
			s0.2-0.1,0.2-0.2c0.4-1.7,2.1-1.6,2.7-1.4c0.1,0,0.2,0,0.2-0.1c0.1-0.1,0.1-0.1,0.1-0.2c0.1-0.4,0.5-1.1,1.2-1.6
			c0.6-0.3,1.4-0.3,2.1,0.1c0.1,0.1,0.2,0,0.2,0c0.9-0.5,1.8-0.5,2.4-0.1c0.4,0.3,0.5,0.9,0.4,1.3c-0.2,0.5-0.7,0.9-1.4,0.9
			c-0.2,0-0.2,0.1-0.2,0.2c-0.1,0.4-0.3,0.7-0.7,1c-0.5,0.3-1.4,0.4-2.2,0.1c-0.1,0-0.2,0-0.2,0c-0.1,0.1-0.1,0.1-0.2,0.2
			c-0.1,0.3-0.2,0.7-0.6,1c-0.4,0.2-1.1,0.2-1.8,0c-0.2-0.1-0.2,0-0.3,0.2c-0.5,0.9-1.2,1.6-2,1.8c-0.7,0.2-1.6,0.1-2.2-0.4
			c-0.1-0.1-0.2-0.1-0.3,0C492.4,451.5,491.7,451.6,491.2,451.6L491.2,451.6z M482.4,439.4c-0.7,0-1.4-0.2-1.6-0.6
			c-0.4-0.7,0.1-1.4,0.4-1.6c0.7-0.4,1.3-0.2,1.4,0.1c-0.2,0.2-0.5,0.7-0.7,0.7c-0.2,0-0.2,0.3-0.1,0.4c0.5,0.2,0.9-0.7,1.6-1.1
			c0.6-0.4,1.4-0.1,1.4,0.1C484.4,437.7,483.9,439.4,482.4,439.4L482.4,439.4z M490.5,439.4c-0.7,0-1.4-0.1-2.1-0.4
			c0.3-0.4,0.7-1.3,1-1.6c0.5-0.6,1.3-0.3,1.4-0.1c-0.1,0.1-0.5,0.7-0.7,0.7c-0.2,0.1-0.2,0.2-0.2,0.4c0.2,0.2,0.5,0,0.7-0.2
			c0.2-0.2,0.7-0.9,0.9-1c0.5-0.4,1.6-0.2,1.4,0.2c-0.3,0.5-0.5,1.4-1.3,1.8C491.2,439.2,490.8,439.3,490.5,439.4L490.5,439.4z
			 M498.4,439.3c-0.5,0-1.1-0.2-1.6-0.3c0.2-0.4,0.7-1.3,0.9-1.6c0.5-0.5,1.3-0.3,1.3-0.2c-0.1,0.1-0.4,0.6-0.6,0.7
			c-0.2,0.1-0.2,0.2-0.2,0.4c0.2,0.2,0.5,0.1,0.6-0.2c0.2-0.2,0.7-0.9,0.9-1c0.5-0.2,1.6-0.2,1.4,0.2c-0.3,0.5-0.5,1.4-1.3,1.8
			C499.5,439.3,499,439.4,498.4,439.3L498.4,439.3z M484.9,432.3c-0.6,0-1.2-0.2-1.6-0.2v-4.2c0,0,0.2-0.2,0.9,0
			c0.9,0.2,1.1,0,1.1,0v4.2C485.4,432.1,485.3,432.3,484.9,432.3L484.9,432.3z M486.5,432.3c-0.3,0-0.5-0.2-0.5-0.2v-4.2
			c0,0,0.4,0.2,1.1,0c0.6-0.2,0.9,0,0.9,0v4.2C487.7,432,487.1,432.3,486.5,432.3L486.5,432.3z M499.4,432.3c-0.6,0-1.2-0.2-1.6-0.2
			v-4.2c0,0,0.2-0.2,0.9,0c0.9,0.2,1.1,0,1.1,0v4.2C499.8,432.1,499.7,432.3,499.4,432.3L499.4,432.3z M500.9,432.3
			c-0.3,0-0.5-0.2-0.5-0.2v-4.2c0,0,0.4,0.2,1.1,0c0.6-0.2,0.9,0,0.9,0v4.2C502.2,432,501.5,432.3,500.9,432.3L500.9,432.3z
			 M484.9,419.1c-0.6,0-1.2-0.2-1.6-0.2v-4.2c0,0,0.2-0.2,0.9,0c0.9,0.2,1.1,0,1.1,0v4.2C485.4,418.9,485.3,419.1,484.9,419.1
			L484.9,419.1z M486.5,419.1c-0.3,0-0.5-0.2-0.5-0.2v-4.2c0,0,0.4,0.2,1.1,0c0.6-0.2,0.9,0,0.9,0v4.2
			C487.7,418.8,487.1,419.1,486.5,419.1L486.5,419.1z M499.5,419.1c-0.6,0-1.2-0.2-1.6-0.2v-4.2c0,0,0.2-0.2,0.9,0
			c0.9,0.2,1.1,0,1.1,0v4.2C499.9,418.9,499.8,419.1,499.5,419.1L499.5,419.1z M501,419.1c-0.3,0-0.5-0.2-0.5-0.2v-4.2
			c0,0,0.4,0.2,1.1,0c0.6-0.2,0.9,0,0.9,0v4.2C502.2,418.8,501.7,419.1,501,419.1L501,419.1z"/>
		<path d="M492.9,452.8c-0.1,0-0.2-0.2-0.2-0.2c0-0.2-0.1-0.5-0.2-0.7c-0.7,0.4-1.6,0.5-2.3,0.2c-0.9-0.2-1.4-0.9-1.8-1.7
			c-0.3,0.1-0.5,0.2-0.9,0.2c-0.2,0.2-0.4,0.5-0.7,0.7c-0.2,0.2-0.4,0.1-0.2-0.3c0.1-0.2,0.1-0.3,0.2-0.4c-0.6,0-1-0.2-1.3-0.5
			c-0.5-0.5-0.7-1.1-0.9-1.4h-0.1c-0.5-0.1-1.1-0.3-1.6-0.9c-0.1,0.1-0.2,0.1-0.2,0.1c-1.2,0.7-0.6-0.2-0.2-0.7
			c-1.6-0.2-2.1-1-2.1-1.4c0-0.2-0.1-0.2-0.1-0.4c0-0.5,0.3-1.1,0.7-1.4c0.5-0.4,1.2-0.3,1.8,0c0.7-0.2,1.8-0.2,2.6,0.4
			c0.5-0.5,0.7-0.9,1-1c0.5-0.5,1.1-0.9,1.6-1c-0.4,0.2-0.9,0.3-1.6,0.2c-1.3-0.2-2.1,0.1-2.7,0.1c-0.9,0.1-1.8-0.1-2.3-0.1
			c-0.5,0-1.1-0.2-1.6-0.3c-0.4-0.1-0.3-0.3,0.2-0.5c0.5-0.2,1.4-0.2,1.7-0.3c0.9-0.4,2.2-0.7,3.2-0.6c0.7,0.1,1.4-0.3,1.6-0.3
			c0.3-0.1,1.1-0.3,1.6-0.3c0,0,0-0.5,0-0.7c-0.2-0.1-0.2-0.1-0.4-0.2c-0.4,0.2-2.1,0.9-4.1,0.1c-0.5,0.2-1.4,0.7-2.6,0.2
			c-1.6-0.5-1.3-1.9-0.7-2.6c0.7-0.9,2-0.7,2.4-0.2c0.9-0.5,1.7-0.4,2.3,0c0.4-0.2,2.4-0.6,3.9,0c0.2-0.2,1.1-0.6,2.1-0.1
			c0.6-0.4,1.6-0.4,2.1,0.1c0.2-0.2,0.7-0.4,2-0.4c1.4,0,1.8,0.2,2,0.4c0.3-0.2,1.1-0.5,2.1-0.2c0.5-0.3,1.6-0.3,2.2,0.1
			c1.1-0.5,3.1-0.2,3.5,0.1c0.9,0.6,0.5,1.8-0.5,2.5c-1.9,1-3.7,0.2-4.1,0c-0.5,0.4-1.8,0.6-3,0.4c0,0.2,0,0.3,0,0.5c0,0,0,0,0,0.1
			c0.2,0.1,0.6,0.3,1.3,0.4c0.9,0.1,3.2,0,4.3,0.6c0.6,0.3,2.8,0.7,3.2,0.9c0.3,0.2,0.2,0.3,0.1,0.4c-0.2,0.1-1.8,0.3-2,0.3
			s-1.6,0-2.1-0.1c-0.9-0.2-2.2-0.2-3.4,0c-0.4,0.1-0.9-0.1-1.1-0.2c0.1,0.1,0.2,0.2,0.2,0.2c0.3,0.3,0.7,0.9,1.3,1.2
			c0.2,0.1,0.3,0.2,0.5,0.2c0.5-0.2,1.4-0.5,2.5,0.1c1.6-0.7,2.5-0.2,2.8,0c0.4,0.3,0.6,0.9,0.6,1.4c0,0.2,0,0.4-0.1,0.5
			c-0.2,0.7-0.9,1.1-1.7,1.2c-0.1,0.2-0.2,0.4-0.2,0.5c0.1,0.2,0.2,0.2,0.2,0.3c0.1,0.1,0.3,0.5-0.4,0.2c0,0-0.1-0.1-0.2-0.1
			c-0.1,0.1-0.2,0.2-0.3,0.2c-0.6,0.4-1.6,0.5-2.4,0.2c-0.2,0.5-0.4,0.9-0.7,1.1s-0.9,0.3-1.4,0.2c0,0.1,0.1,0.2,0.1,0.2
			c0.2,0.5,0.2,0.7-0.2,0.5c-0.3-0.3-0.5-0.5-0.6-0.6c-0.5,0.9-1.3,1.4-2.1,1.7c-0.7,0.2-1.6,0.1-2.3-0.2c-0.1,0.4-0.1,0.7-0.2,0.9
			C493.1,452.7,493,452.8,492.9,452.8L492.9,452.8z M491.2,451.6c0.6,0,1.2-0.2,1.7-0.5c0.1-0.1,0.2-0.1,0.3,0
			c0.7,0.5,1.6,0.6,2.2,0.4c0.9-0.2,1.6-0.9,2-1.8c0.1-0.1,0.2-0.2,0.3-0.2c0.7,0.2,1.4,0.3,1.8,0c0.4-0.2,0.5-0.7,0.6-1
			c0-0.1,0.1-0.2,0.2-0.2c0.1-0.1,0.2-0.1,0.2,0c0.9,0.3,1.7,0.2,2.2-0.1c0.4-0.2,0.6-0.5,0.7-1c0-0.2,0.2-0.2,0.2-0.2
			c0.7-0.1,1.2-0.4,1.4-0.9c0.2-0.5,0-1-0.4-1.3c-0.5-0.5-1.4-0.5-2.4,0.1c-0.1,0.1-0.2,0.1-0.2,0c-0.7-0.4-1.4-0.4-2.1-0.1
			c-0.7,0.4-1.2,1.1-1.2,1.6c0,0.1-0.1,0.2-0.1,0.2c-0.1,0.1-0.2,0.1-0.2,0.1c-0.5-0.1-2.3-0.2-2.7,1.4c0,0.1-0.1,0.2-0.2,0.2
			c-0.1,0-0.2,0-0.2-0.1c-1.1-0.7-2.3-0.7-3.4,0.2c-0.1,0.1-0.2,0.1-0.3,0c-1.2-1.2-2.2-1.1-2.7-0.9c-0.2,0.1-0.2,0-0.3-0.1
			c-0.5-0.7-1.6-0.9-2.2-0.7c-0.1,0-0.2,0-0.2,0c-0.1-0.1-0.1-0.2-0.1-0.2c0.1-0.7-0.1-1.2-0.5-1.6c-0.6-0.5-1.7-0.5-2.3-0.3
			c-0.1,0-0.2,0-0.2,0c-0.5-0.3-0.9-0.3-1.3-0.1c-0.4,0.3-0.6,0.7-0.5,1.1c0.2,0.6,0.9,1,1.9,1.1c0.1,0,0.2,0.1,0.2,0.2
			c0.2,1,0.9,1.1,1.4,1.3l0.3,0.1c0.2,0,0.2,0.2,0.2,0.3c0,0.2,0.2,0.9,0.7,1.2c0.6,0.5,1.6,0.5,2.7,0c0.1,0,0.2,0,0.2,0
			c0.1,0,0.1,0.1,0.2,0.2c0.3,0.9,0.9,1.4,1.6,1.6C490.8,451.5,490.9,451.6,491.2,451.6L491.2,451.6z M491.4,451.1
			c-0.7,0-1.6-0.5-1.8-1c-0.1-0.2,0.2-0.5,0.4-0.3c0.5,0.5,1.3,1.1,2.4,0.4c0.2-0.1,0.3,0.3,0.2,0.5
			C492.2,451,491.7,451.1,491.4,451.1L491.4,451.1z M494.7,450.9c-0.7,0-1.4-0.3-1.6-0.7c-0.2-0.2,0.2-0.6,0.2-0.5
			c0.5,0.7,2.2,1.1,3.2-0.4c0.1-0.1,0.1-0.2,0.2-0.2s0.3,0.2,0.2,0.4C496.4,450.6,495.5,450.9,494.7,450.9L494.7,450.9z
			 M487.6,449.6c-1.2,0.1-1.8-0.9-1.8-1.4c-0.1-0.3,0.3-0.3,0.4-0.2c0.2,0.7,0.7,1.6,1.9,1.1c0.2-0.1,0.3,0.4,0.2,0.5
			C487.8,449.5,487.7,449.6,487.6,449.6L487.6,449.6z M498.7,449.2c-0.3,0-0.5-0.1-0.7-0.2c-0.1,0-0.2-0.5,0.2-0.4
			c0.6,0.2,1.1,0.2,1.4-0.5c0.1-0.2,0.4-0.1,0.3,0.2C499.6,449.1,499.1,449.2,498.7,449.2L498.7,449.2z M501.3,448
			c-0.3,0-0.5-0.1-0.7-0.2c-0.2-0.2-0.1-0.5,0.1-0.5c0.7,0.2,1.4,0.2,1.9-0.6c0.2-0.3,0.4,0,0.4,0.2C502.7,447.8,502,448,501.3,448z
			 M491.9,447.8c0.1-0.1,0.2-0.1,0.2-0.2c0-0.2-0.1-0.4-0.1-0.5c-0.2-0.7-0.2-1.4-0.2-1.6s0-0.6,0-0.9v-0.1c0,0-0.4,0.5-0.4,0.6
			c-0.2,0.2-0.3,0.4-0.5,0.6c-0.3,0.4-0.5,0.6-0.7,0.9C490.6,446.9,491.2,447.2,491.9,447.8L491.9,447.8z M485.1,447.7
			c-0.4,0-1.1-0.2-1.2-0.9c-0.1-0.3,0.3-0.4,0.4-0.2c0.2,0.4,0.3,0.7,1,0.7c0.2,0,0.2,0.4,0.1,0.4
			C485.1,447.7,485.1,447.7,485.1,447.7L485.1,447.7z M495.3,447.6c0.1-0.2,0.1-0.2,0.2-0.3c-0.3-0.3-1.1-1.1-1.4-1.8
			c-0.2-0.3-0.2-0.5-0.2-0.6c0.1,0.6-0.1,1.6-0.2,2.4C494.2,447.1,494.7,447.2,495.3,447.6L495.3,447.6z M492.6,447.3
			c0.2-0.1,0.4-0.2,0.5-0.2c0.2-0.3,0.4-1.6,0.3-2.4c-0.4,0-0.7,0-1,0c-0.1,0.2-0.1,0.7-0.1,1.2
			C492.4,446.7,492.6,447.2,492.6,447.3L492.6,447.3z M495.8,446.8c0.2-0.2,0.4-0.3,0.5-0.5c-0.1-0.1-0.2-0.3-0.2-0.5
			c-0.2-0.5-0.1-1.1-0.7-1.8c-0.1,0.1-0.7,0.4-0.9,0.5C494.5,445.3,495.3,446.3,495.8,446.8L495.8,446.8z M489.1,446.7
			c0.2-0.1,0.5-0.1,0.6-0.1c0.1-0.1,0.5-0.5,1.1-1.2c0.3-0.4,0.5-0.9,0.6-0.9c-0.2-0.1-0.7-0.3-0.9-0.5c-0.5,0.5-0.9,2-1.1,2.4
			C489.2,446.6,489.2,446.7,489.1,446.7L489.1,446.7z M488.6,446.6c0.7-1.1,0.7-2.1,1.4-2.8c-0.9,0.9-1.6,0.9-2.8,1.4
			c-0.2,0.1-0.5,0.3-0.6,0.4l0,0c0,0.1,0,0.2,0,0.3v0.1C487.3,445.9,488,446,488.6,446.6L488.6,446.6z M503.6,446.6
			c-0.1,0-0.2,0-0.2,0c-0.2,0-0.2-0.4,0-0.4c0.5,0,0.9-0.1,0.7-0.7c0-0.2,0.4-0.2,0.4,0C504.8,446.1,504.3,446.6,503.6,446.6
			L503.6,446.6z M483,446.2c-0.6,0-1.4-0.4-1.4-1.1c0-0.2,0.2-0.3,0.3-0.2c0.1,0.1,0,0.2,0.3,0.6c0.3,0.3,0.7,0.4,1.1,0.4
			c0.2,0,0.2,0.4-0.1,0.4C483.1,446.2,483,446.2,483,446.2L483,446.2z M496.7,446.2c0.5-0.2,0.9-0.2,1.4-0.2
			c0.1-0.2,0.2-0.3,0.2-0.5l0,0c-0.2-0.1-1-0.6-2.1-1.2c-0.3-0.2-0.5-0.3-0.5-0.4c0.2,0.2,0.2,0.4,0.4,0.6c0.2,0.5,0.2,0.9,0.5,1.6
			C496.7,446,496.7,446.1,496.7,446.2L496.7,446.2z M498.7,445.2c0.2-0.2,0.3-0.4,0.5-0.5c-0.5-0.3-0.7-0.5-1.1-0.7
			c-0.9-0.9-1.2-1.3-1.4-1.3c-0.2,0.3-0.5,0.7-0.7,0.9c0.3,0.3,1.6,0.9,2.1,1.4C498.3,444.9,498.6,445.1,498.7,445.2L498.7,445.2z
			 M486.4,445.2c0.1-0.1,0.2-0.1,0.2-0.1s0.5-0.3,0.7-0.4c1.1-0.5,1.8-0.6,2.5-1.2c-0.2-0.3-0.5-0.6-0.7-0.9c-1.6,0.5-2.7,1.8-2.9,2
			C486.2,444.6,486.3,444.9,486.4,445.2L486.4,445.2z M492.9,444.4c2.4,0,4.2-1.8,4.2-4.2c0-0.2,0-0.4-0.1-0.6
			c-0.2-0.1-0.5-0.2-0.7-0.3c-1.2,0.7-2.9,0.7-4.1,0c-0.7,0.5-2.3,0.6-3.5,0.3c0,0.2-0.1,0.5-0.1,0.5
			C488.8,442.4,490.6,444.4,492.9,444.4L492.9,444.4z M504.5,442.4c0.2,0,0.5,0,0.5-0.1c0.4-0.1,0.1-0.1-0.1-0.2
			c-0.5-0.1-1.2-0.2-2-0.5c-1.1-0.4-3.2-0.5-4-0.5c-0.9,0-1.1-0.4-1.4-0.3c0,0.5-0.3,1.1-0.3,1.1c0.2,0.2,1,0.4,1.7,0.4
			c0.9,0,2.5-0.1,3.4,0C502.7,442.4,504.3,442.4,504.5,442.4L504.5,442.4z M491.6,442.3c-0.2,0-0.2,0-0.3,0l0,0
			c-0.2,0-0.5-0.2-0.9-0.5c-0.3-0.2-0.1-0.3,0.1-0.2c0.3,0.2,0.5,0.2,0.6,0.1v-0.1c0-0.2,0.2-0.5,0.5-0.5c0.3,0,0.5,0.2,0.5,0.5v0.1
			c0.2,0,0.4-0.1,0.5-0.1c0,0,0.2,0.5,0,0.5C492.3,442.2,491.9,442.3,491.6,442.3L491.6,442.3z M494.2,442.2c-0.3,0-0.6-0.1-0.7-0.2
			c-0.2-0.1,0-0.5,0-0.5s0.3,0.1,0.5,0l0,0c0-0.2,0.2-0.5,0.5-0.5c0.3,0,0.5,0.2,0.5,0.5l0,0c0.1,0.1,0.4,0,0.6-0.2
			c0.2-0.1,0.2,0,0.1,0.2C495.4,442.1,494.7,442.2,494.2,442.2L494.2,442.2z M483.1,442.2c0.2,0,0.5,0,0.9-0.1
			c0.5-0.1,1.6-0.2,2.9-0.1c0.7,0.1,1.2-0.2,1.6-0.5c-0.1-0.2-0.2-0.7-0.2-0.9c-0.4,0-1.1,0.2-1.4,0.4c-0.2,0.1-1,0.4-1.6,0.3
			c-1.1-0.1-2.4,0.2-3.1,0.5c-0.2,0.1-1.6,0.2-0.2,0.2C482.3,442.2,482.8,442.2,483.1,442.2L483.1,442.2z M493.5,440.7
			c-0.1,0,0-0.2-0.1-0.2c-0.2,0-0.9-0.1-1.1,0c-0.2,0.1,0-0.2,0-0.4c0.2-0.3,1.1-0.2,1.1,0C493.5,440.3,493.5,440.7,493.5,440.7
			L493.5,440.7z M486,439.4c0.2,0,0.2,0,0.4,0c1.8-0.2,1.8-1.3,2.3-1.8c0.2-0.2-1.6-0.7-3.2-0.2c-0.5,0.2-1,1.6-1.1,1.7
			C484.3,439.1,485.1,439.4,486,439.4L486,439.4z M482.4,439.4c1.6,0,1.9-1.8,2.3-2.1c0-0.2-0.9-0.5-1.4-0.1
			c-0.6,0.5-1.1,1.3-1.6,1.1c-0.2-0.1-0.2-0.4,0.1-0.4c0.2,0,0.5-0.5,0.7-0.7c-0.1-0.2-0.7-0.5-1.4-0.1c-0.3,0.2-0.7,0.9-0.4,1.6
			C481,439.2,481.7,439.4,482.4,439.4L482.4,439.4z M502.7,439.4c0.2,0,0.2,0,0.4,0c1.8-0.2,2.3-1.4,2.1-1.8c-0.2-0.4-1.3-0.7-3-0.3
			c-0.5,0.2-1,1.6-1.1,1.7C500.9,439.1,501.7,439.4,502.7,439.4L502.7,439.4z M490.5,439.4c0.4,0,0.7-0.1,1.1-0.2
			c0.9-0.4,1-1.3,1.3-1.8c0.1-0.3-0.9-0.5-1.4-0.2c-0.2,0.2-0.7,0.7-0.9,1c-0.2,0.2-0.5,0.5-0.7,0.2c-0.1-0.2,0-0.2,0.2-0.4
			c0.2-0.1,0.6-0.7,0.7-0.7c0-0.2-0.9-0.5-1.4,0.1c-0.2,0.3-0.7,1.2-1,1.6C489.1,439.2,489.8,439.4,490.5,439.4L490.5,439.4z
			 M498.4,439.3c0.5,0,1-0.1,1.4-0.2c0.9-0.4,1.1-1.3,1.3-1.8c0.1-0.3-0.9-0.4-1.4-0.2c-0.2,0.1-0.7,0.7-0.9,1
			c-0.2,0.2-0.5,0.4-0.6,0.2c-0.1-0.2,0-0.3,0.2-0.4c0.2-0.1,0.5-0.6,0.6-0.7c0-0.2-0.7-0.4-1.3,0.2c-0.3,0.3-0.7,1.2-0.9,1.6
			C497.4,439.2,497.9,439.3,498.4,439.3L498.4,439.3z M494.3,439.3c0.2,0,0.2,0,0.4,0c1.8-0.2,1.8-1.3,2.3-1.8
			c0.2-0.2-1.6-0.7-3.2-0.2c-0.5,0.2-1,1.6-1.1,1.7C492.6,439,493.4,439.3,494.3,439.3L494.3,439.3z M480.1,434.8v-13.5
			c0-4.4,1.1-7.6,3.5-9.7c2.4-2.1,5.9-3.3,9.4-4.1c3.6,0.9,7.1,1.9,9.4,4.1c2.4,2.1,3.5,5.3,3.5,9.7v13.5H480.1z M480.7,434.1h10.1
			v-9.2h-10.1C480.7,425,480.7,434.1,480.7,434.1z M491.3,434.1h3.4v-9.7h10.7v-2.9h-10.7v-13L493,408l-1.7,0.5v13h-10.7v3h10.7
			L491.3,434.1L491.3,434.1z M495.1,434.1h10.1v-9.2h-10.1C495.1,425,495.1,434.1,495.1,434.1z M484.9,432.8c-0.5,0-1.4-0.4-2.1-0.2
			v-0.9h-0.6v-4.8h2.9v-0.4h1.2v0.4h2.9v4.9h-0.6v0.9c-0.6-0.2-1.7,0.2-2.1,0.2c-0.5,0-0.7-0.2-0.7-0.2S485.5,432.8,484.9,432.8
			L484.9,432.8z M499.5,432.8c-0.5,0-1.4-0.4-2.1-0.2v-0.9h-0.6v-4.8h2.9v-0.4h1.2v0.4h2.9v4.9h-0.6v0.9c-0.6-0.2-1.7,0.2-2.1,0.2
			c-0.5,0-0.7-0.2-0.7-0.2S499.9,432.8,499.5,432.8L499.5,432.8z M484.9,432.3c0.3,0,0.5-0.2,0.5-0.2v-4.2c0,0-0.4,0.2-1.1,0
			c-0.6-0.2-0.9,0-0.9,0v4.2C483.7,432.1,484.4,432.3,484.9,432.3L484.9,432.3z M486.5,432.3c0.6,0,1.2-0.2,1.6-0.2v-4.2
			c0,0-0.2-0.2-0.9,0c-0.9,0.2-1.1,0-1.1,0v4.2C486,432.1,486.1,432.3,486.5,432.3L486.5,432.3z M499.4,432.3c0.3,0,0.5-0.2,0.5-0.2
			v-4.2c0,0-0.4,0.2-1.1,0c-0.6-0.2-0.9,0-0.9,0v4.2C498.2,432.1,498.8,432.3,499.4,432.3L499.4,432.3z M500.9,432.3
			c0.6,0,1.2-0.2,1.6-0.2v-4.2c0,0-0.2-0.2-0.9,0c-0.9,0.2-1.1,0-1.1,0v4.2C500.5,432.1,500.6,432.3,500.9,432.3L500.9,432.3z
			 M480.7,420.9h10.1v-12.3c-2.6,0.7-5.1,1.8-6.7,3.3c-0.5,0.5-1.1,1.1-1.4,1.8h2.6v-0.4h1.2v0.4h2.9v4.9h-0.6v0.9
			c-0.6-0.2-1.7,0.2-2.1,0.2c-0.5,0-0.7-0.2-0.7-0.2s-0.2,0.2-0.7,0.2c-0.5,0-1.4-0.3-2.1-0.2v-1h-0.6v-4.4c-1,1.7-1.4,3.7-1.6,6.3
			L480.7,420.9L480.7,420.9z M495.1,420.9h10.1v-0.4c-0.2-2.7-0.6-4.8-1.6-6.4v4.4h-0.6v0.9c-0.6-0.2-1.7,0.2-2.1,0.2
			c-0.5,0-0.7-0.2-0.7-0.2s-0.2,0.2-0.7,0.2c-0.5,0-1.4-0.3-2.1-0.2v-0.9h-0.6v-4.9h2.9v-0.4h1.2v0.4h2.6c-0.4-0.6-0.9-1.2-1.6-1.8
			c-1.7-1.6-4.2-2.5-6.7-3.3L495.1,420.9L495.1,420.9z M484.9,419.1c0.3,0,0.5-0.2,0.5-0.2v-4.2c0,0-0.4,0.2-1.1,0
			c-0.6-0.2-0.9,0-0.9,0v4.2C483.7,418.8,484.4,419.1,484.9,419.1L484.9,419.1z M486.5,419.1c0.6,0,1.2-0.2,1.6-0.2v-4.2
			c0,0-0.2-0.2-0.9,0c-0.9,0.2-1.1,0-1.1,0v4.2C486,418.9,486.1,419.1,486.5,419.1L486.5,419.1z M499.5,419.1c0.3,0,0.5-0.2,0.5-0.2
			v-4.2c0,0-0.4,0.2-1.1,0c-0.6-0.2-0.9,0-0.9,0v4.2C498.3,418.8,498.9,419.1,499.5,419.1L499.5,419.1z M501,419.1
			c0.6,0,1.2-0.2,1.6-0.2v-4.2c0,0-0.2-0.2-0.9,0c-0.9,0.2-1.1,0-1.1,0v4.2C500.6,418.9,500.6,419.1,501,419.1L501,419.1z"/>
	</g>
</g>
</svg>
