<?xml version="1.0" encoding="utf-8"?>
<!-- Generator: Adobe Illustrator 27.2.0, SVG Export Plug-In . SVG Version: 6.00 Build 0)  -->
<svg version="1.1" id="Layer_1" xmlns="http://www.w3.org/2000/svg" xmlns:xlink="http://www.w3.org/1999/xlink" x="0px" y="0px"
	 viewBox="0 0 56 56" style="enable-background:new 0 0 56 56;" xml:space="preserve">
<style type="text/css">
	.st0{fill-rule:evenodd;clip-rule:evenodd;fill:#007A73;}
</style>
<g id="layer1">
	<g id="g14189">
		<path id="path13366" class="st0" d="M41,14.3c0-7.2-5.8-13-13-13c-7.2,0-13,5.8-13,13H41z M15,40.3c0-7.2,5.8-13,13-13
			c-7.2,0-13-5.8-13-13c-7.2,0-13,5.8-13,13C1.9,34.5,7.8,40.3,15,40.3z M15,40.3c0,7.2,5.8,13,13,13c7.2,0,13-5.8,13-13H15z
			 M28,27.3c7.2,0,13,5.8,13,13c7.2,0,13-5.8,13-13c0-7.2-5.8-13-13-13C41,21.5,35.2,27.3,28,27.3z"/>
	</g>
</g>
</svg>
